<?xml version="1.0" encoding="utf-8"?><!-- Uploaded to: SVG Repo, www.svgrepo.com, Generator: SVG Repo Mixer Tools -->
<svg fill="#000000" width="800px" height="800px" viewBox="0 0 24 24" id="film-movie-2" data-name="Flat Line" xmlns="http://www.w3.org/2000/svg" class="icon flat-line"><rect id="secondary" x="7" y="3" width="10" height="18" rx="1" style="fill: rgb(44, 169, 188); stroke-width: 2;"></rect><path id="primary" d="M17,12h4V6H17Zm0,6h4V12H17Zm4,3V3M7,6H3v6H7Zm0,6H3v6H7ZM3,21V3m10,9-2-1.5v3Zm3,9H8a1,1,0,0,1-1-1V4A1,1,0,0,1,8,3h8a1,1,0,0,1,1,1V20A1,1,0,0,1,16,21Z" style="fill: none; stroke: rgb(0, 0, 0); stroke-linecap: round; stroke-linejoin: round; stroke-width: 2;"></path></svg>